<svg width="270" height="52" viewBox="0 0 270 52" fill="none" xmlns="http://www.w3.org/2000/svg">
<path d="M25.5584 47.9376L29.3435 51.7845L29.6885 43.8027L25.5584 47.9376Z" fill="#FF3434"/>
<path fill-rule="evenodd" clip-rule="evenodd" d="M21.8952 44.3245V33.6783L16.898 28.9708V21.294L20.9537 17.021H23.2712V24.6978L25.899 26.7761L28.318 24.6979V17.021H30.6355L34.6912 21.294V28.9709L29.694 33.6784V44.3245L25.745 48.0009L25.7438 48.1213L21.8952 44.3245Z" fill="#FF3434"/>
<path fill-rule="evenodd" clip-rule="evenodd" d="M45.5518 43.0739C41.3928 47.8566 35.6279 50.9527 29.3438 51.7785L28.3257 44.0312C32.7184 43.454 36.7482 41.2897 39.6554 37.9465C42.5626 34.6033 44.1463 30.312 44.108 25.8817C44.0698 21.4514 42.4121 17.1882 39.4476 13.8957C36.4831 10.6032 32.4165 8.50891 28.0145 8.00766C23.6125 7.50641 19.1792 8.63281 15.5503 11.1745C11.9215 13.7162 9.34779 17.4977 8.31446 21.8059C7.28113 26.1142 7.85955 30.6517 9.94067 34.5629C11.5885 37.6599 14.0884 40.1949 17.1184 41.8856V49.7168L16.8785 50.3591C10.9409 48.1416 6.01968 43.8287 3.04246 38.2333C0.0652483 32.638 -0.762226 26.1468 0.716035 19.9835C2.1943 13.8201 5.87617 8.4105 11.0675 4.77437C16.2589 1.13823 22.6011 -0.473185 28.8986 0.243899C35.196 0.960983 41.0135 3.95703 45.2545 8.66722C49.4955 13.3774 51.8669 19.4763 51.9217 25.8142C51.9764 32.1521 49.7108 38.2911 45.5518 43.0739Z" fill="#FF3434"/>
<path d="M81.4126 38.2314H88.2926L84.4526 16.3754L84.5166 16.2474H77.4126L64.3886 38.2314H71.5246L73.2526 35.2874H80.9006L81.4126 38.2314ZM75.9726 30.7114L79.1406 25.3674L80.0686 30.7114H75.9726ZM103.007 38.6154C108.959 38.6154 113.919 34.6794 115.135 28.7274L117.727 16.2474H111.519L109.119 27.8954C108.511 30.7114 106.079 32.9834 103.391 32.9834C101.087 32.9834 99.9031 31.2234 100.479 28.4074L103.007 16.2474H96.7991L94.3031 28.2154C93.0871 34.1674 96.6711 38.6154 103.007 38.6154ZM121.341 38.2314H127.549L130.973 21.7834H137.469L138.621 16.2474H119.421L118.269 21.7834H124.765L121.341 38.2314ZM146.715 38.6154C154.523 38.6154 160.891 32.6954 160.891 25.4634C160.891 19.9914 156.507 15.8634 150.651 15.8634C142.875 15.8634 136.507 21.7514 136.507 28.9834C136.507 34.4874 140.891 38.6154 146.715 38.6154ZM147.099 32.9834C144.699 32.9834 142.907 31.1914 142.907 28.7914C142.907 24.7914 146.235 21.4954 150.299 21.4954C152.699 21.4954 154.491 23.2874 154.491 25.6874C154.491 29.6874 151.163 32.9834 147.099 32.9834ZM172.715 38.6154C175.947 38.6154 179.819 37.0794 182.251 34.9034L178.315 30.5514C176.971 31.9914 174.827 32.9834 173.195 32.9834C171.083 32.9834 169.003 31.3514 169.003 28.5674C169.003 24.9834 172.491 21.4954 176.171 21.4954C177.995 21.4954 179.339 22.3594 180.043 23.5434L185.163 19.8954C183.403 17.5914 180.235 15.8634 176.459 15.8634C169.323 15.8634 162.699 21.9754 162.699 28.6954C162.699 34.2954 167.275 38.6154 172.715 38.6154ZM200.163 38.2314H207.043L203.203 16.3754L203.267 16.2474H196.163L183.139 38.2314H190.275L192.003 35.2874H199.651L200.163 38.2314ZM194.723 30.7114L197.891 25.3674L198.819 30.7114H194.723ZM233.821 22.6474C233.821 18.8394 231.005 16.2474 226.717 16.2474H216.381L211.805 38.2314H218.013L219.421 31.6074H221.085L225.085 38.2314H231.997L227.613 30.9994C231.261 29.7514 233.821 26.6154 233.821 22.6474ZM221.437 21.8794H225.437C226.749 21.8794 227.485 22.3594 227.485 23.1594C227.485 24.5034 225.821 25.9754 224.189 25.9754H220.573L221.437 21.8794ZM269.658 16.2474H261.978L256.602 22.0714L253.69 16.2474H246.714L252.09 26.9994L241.722 38.2314H249.402L254.778 32.4074L257.69 38.2314H264.666L259.29 27.4794L269.658 16.2474Z" fill="white"/>
</svg>
