<svg width="568" height="100" viewBox="0 0 568 100" fill="none" xmlns="http://www.w3.org/2000/svg">
<path fill-rule="evenodd" clip-rule="evenodd" d="M6.85925 98.3455L0 1.65452H30.9101V53.5213L59.695 1.65452H90.4323L96.8076 53.5877L119.121 1.65452H151.058L103.472 98.3455H74.5425L66.7145 45.573L35.8074 98.3455H6.85925ZM67.2875 42.6236L75.407 97.3607H102.845L149.462 2.63936H119.784L96.2655 57.3764L89.546 2.63936H60.288L29.9102 57.3764V2.63936H1.07223L7.79175 97.3607H35.2298L67.2875 42.6236ZM220.961 1.65452H273.741L288.184 40.9755L317.752 1.65452H350.82L299.445 66.6303L292.321 98.3455H263.114L270.32 66.268L248.803 8.11568L229.734 98.3455H200.682L208.101 61.946H175L167.441 98.3455H138.237L158.672 1.65452H187.863L180.864 36.1237H213.962L220.961 1.65452ZM214.781 37.1085H179.644L186.643 2.63936H159.485L139.467 97.3607H166.625L174.184 60.9612H209.322L201.902 97.3607H228.92L248.54 4.52812L271.359 66.2005L264.36 97.3607H291.518L298.517 66.2005L348.774 2.63936H318.256L287.878 43.0372L273.039 2.63936H221.781L214.781 37.1085ZM464.698 56.4113C459.378 82.0563 437.679 99.0152 411.641 99.0152C383.923 99.0152 368.244 79.8503 373.564 54.2052L384.483 2.63936H411.641L400.582 55.0325C398.062 67.1657 403.242 74.7489 413.321 74.7489C425.08 74.7489 435.72 64.9596 438.379 52.8265L448.879 2.63936H476.037L464.698 56.4113ZM437.401 52.6235C434.818 64.3945 424.517 73.764 413.321 73.764C408.554 73.764 405.089 71.9866 403.067 68.906C401.019 65.7857 400.333 61.1492 401.561 55.233M401.562 55.2299L412.87 1.65452H383.67L372.585 54.0042L372.584 54.0081C369.875 67.0673 372.497 78.5882 379.443 86.855C386.389 95.121 397.546 100 411.641 100C438.147 100 460.261 82.7193 465.677 56.6084L477.266 1.65452H448.064L437.402 52.6186C437.402 52.6203 437.401 52.6219 437.401 52.6235M526.504 37.9405L526.509 37.9414C537.703 40.491 546.009 43.1098 551.511 47.0676C554.286 49.0631 556.363 51.4084 557.739 54.2609C559.113 57.1077 559.761 60.4049 559.761 64.2702C559.761 75.1618 554.544 84.1281 546.095 90.3425C537.665 96.543 526.034 100 513.124 100C495.534 100 479.437 93.5752 469.281 83.0091L468.593 82.2931L487.647 64.5688L488.334 65.2101C496.251 72.6044 506.497 75.8322 515.084 75.8322C520.392 75.8322 524.207 74.592 526.664 72.9365C529.133 71.2725 530.183 69.2355 530.183 67.5793C530.183 66.9751 530.056 66.6392 529.829 66.3725C529.568 66.0663 529.077 65.7355 528.105 65.3591C526.576 64.7671 524.232 64.1923 520.64 63.3115C519.606 63.0581 518.469 62.7793 517.218 62.4674C508.099 60.2049 499.732 58.1034 493.67 54.2944C490.613 52.3735 488.107 49.9998 486.372 46.9261C484.636 43.8523 483.706 40.1395 483.706 35.5919C483.706 15.4304 501.991 0 528.943 0C543.707 0 557.408 4.61499 567.286 13.7799L568 14.4423L550.448 33.5172L549.71 32.8918C541.943 26.3163 532.389 24.1678 526.423 24.1678C517.363 24.1678 513.424 29.1705 513.424 32.4207C513.424 33.1095 513.586 33.5656 513.892 33.9402C514.222 34.3442 514.798 34.7476 515.806 35.1674C517.8 35.9978 521.027 36.718 526.092 37.8485L526.504 37.9405ZM517.464 61.5127C499.125 56.9628 484.706 53.2401 484.706 35.5919C484.706 16.1513 502.345 0.984834 528.943 0.984834C543.502 0.984834 556.941 5.53477 566.6 14.4968L550.362 32.145C550.361 32.1448 550.362 32.1451 550.362 32.145C542.382 25.3894 532.583 23.183 526.423 23.183C517.044 23.183 512.424 28.4223 512.424 32.4207C512.424 35.8084 515.669 36.5325 525.748 38.7814L526.283 38.9009C548.682 44.0024 558.761 49.2417 558.761 64.2702C558.761 85.3654 538.602 99.0152 513.124 99.0152C496.165 99.0152 480.676 92.9614 470.703 83.0397C470.47 82.808 470.24 82.5742 470.013 82.3384C470.011 82.3363 470.009 82.3342 470.007 82.3321L487.646 65.9248C495.765 73.508 506.265 76.817 515.084 76.817C526.003 76.817 531.183 71.7156 531.183 67.5793C531.183 64.8807 529.078 64.3647 520.826 62.3419C519.802 62.0911 518.684 61.817 517.464 61.5127Z" fill="#393939"/>
</svg>
