<svg width="540" height="100" viewBox="0 0 540 100" fill="none" xmlns="http://www.w3.org/2000/svg">
<path fill-rule="evenodd" clip-rule="evenodd" d="M75.4887 98.3455L73.2459 85.6608H41.1592L33.5896 98.3455H0L58.2382 1.65452H91.5481L90.691 3.34058L107.661 98.3455H75.4887ZM89.928 2.63936L89.6477 3.19087L106.469 97.3607H76.3309L74.0881 84.676H40.5859L33.0163 97.3607H1.75696L58.8088 2.63936H89.928ZM52.5009 64.9596H70.4435L66.3784 41.9342L52.5009 64.9596ZM54.2584 63.9748H69.2534L65.8561 44.7321L54.2584 63.9748ZM123.296 98.3455L143.758 1.65452H195.597C203.905 1.65452 210.904 3.90882 215.849 7.81765C220.808 11.7381 223.652 17.2906 223.652 23.7345C223.652 34.4492 216.891 43.5463 206.838 48.5821C214.1 52.5964 218.606 59.9043 218.606 68.5444C218.606 78.0754 213.89 85.5623 206.619 90.6325C199.372 95.686 189.591 98.3455 179.337 98.3455H123.296ZM205.733 49.1129C205.352 48.9168 204.964 48.7298 204.568 48.5523C204.967 48.3793 205.36 48.2002 205.749 48.0149C215.89 43.1805 222.651 34.2248 222.651 23.7345C222.651 11.4635 211.858 2.63936 195.597 2.63936H144.573L124.528 97.3607H179.337C199.522 97.3607 217.605 86.882 217.605 68.5444C217.605 60.0262 213.046 52.8782 205.733 49.1129ZM163.917 39.4524H181.299C188.728 39.4524 193.915 35.3161 193.915 29.3874C193.775 26.3541 191.532 25.1133 186.065 25.1133H166.861L163.917 39.4524ZM165.141 38.4676H181.299C184.831 38.4676 187.749 37.4845 189.762 35.8783C191.755 34.2884 192.907 32.0578 192.914 29.4103C192.882 28.7779 192.744 28.2998 192.529 27.9285C192.314 27.5596 191.991 27.2416 191.501 26.9738C190.474 26.4126 188.766 26.0981 186.065 26.0981H167.68L165.141 38.4676ZM156.348 74.8868H177.795C185.504 74.8868 190.971 70.6126 190.971 64.4081C190.971 61.0991 188.588 59.7203 182.701 59.7203H159.572L156.348 74.8868ZM157.58 73.9019H177.795C181.468 73.9019 184.527 72.8836 186.646 71.2068C188.75 69.5421 189.97 67.2003 189.97 64.4081C189.97 63.6952 189.842 63.1546 189.619 62.7352C189.401 62.3242 189.062 61.9719 188.542 61.6756C187.452 61.0547 185.612 60.7051 182.701 60.7051H160.385L157.58 73.9019ZM337.858 42.3478C337.858 74.1196 309.443 100 274.758 100C248.75 100 229.041 81.8267 229.041 57.5143C229.041 25.741 257.457 0 292 0C318.145 0 337.858 18.1693 337.858 42.3478ZM259.079 56.687C259.079 66.4839 266.48 73.764 276.441 73.764C293.701 73.764 307.82 59.9925 307.82 43.313C307.82 33.5161 300.418 26.236 290.458 26.236C273.197 26.236 259.079 40.0075 259.079 56.687ZM438.693 56.4113C433.366 82.0563 411.639 99.0152 385.566 99.0152C357.811 99.0152 342.111 79.8503 347.438 54.2052L358.372 2.63936H385.566L374.492 55.0325C371.969 67.1657 377.155 74.7489 387.248 74.7489C399.023 74.7489 409.676 64.9596 412.34 52.8265L422.853 2.63936H450.047L438.693 56.4113ZM411.36 52.6235C408.774 64.3945 398.459 73.764 387.248 73.764C382.475 73.764 379.005 71.9866 376.98 68.906C374.929 65.7857 374.242 61.1492 375.472 55.233M375.473 55.2299L386.797 1.65452H357.558L346.458 54.0042L346.457 54.0081C343.744 67.0673 346.369 78.5882 353.325 86.855C360.28 95.121 371.452 100 385.566 100C412.107 100 434.25 82.7193 439.674 56.6084L451.278 1.65452H422.037L411.361 52.6186C411.36 52.6203 411.36 52.6219 411.36 52.6235M461.842 98.3455L476.841 27.4769H448.386L453.849 1.65452H540L534.537 27.4769H506.081L491.082 98.3455H461.842ZM505.267 26.492H533.723L538.769 2.63936H454.663L449.617 26.492H478.073L463.074 97.3607H490.268L505.267 26.492ZM336.857 42.3478C336.857 73.508 308.962 99.0152 274.758 99.0152C249.246 99.0152 230.042 81.2291 230.042 57.5143C230.042 26.3541 257.937 0.984834 292 0.984834C317.653 0.984834 336.857 18.7709 336.857 42.3478ZM258.077 56.687C258.077 67.0278 265.927 74.7489 276.441 74.7489C294.243 74.7489 308.821 60.5476 308.821 43.313C308.821 32.9722 300.971 25.2511 290.458 25.2511C272.656 25.2511 258.077 39.4524 258.077 56.687Z" fill="#D6D6D6"/>
</svg>
