<svg width="64" height="64" viewBox="0 0 64 64" fill="none" xmlns="http://www.w3.org/2000/svg">
<path d="M55 43.8248V20.1748C54.9981 19.8188 54.9023 19.4695 54.7224 19.1623C54.5424 18.855 54.2846 18.6007 53.975 18.4248L32.975 6.54982C32.6786 6.37868 32.3423 6.28857 32 6.28857C31.6577 6.28857 31.3214 6.37868 31.025 6.54982L10.025 18.4248C9.71538 18.6007 9.45759 18.855 9.27763 19.1623C9.09768 19.4695 9.00191 19.8188 9 20.1748V43.8248C9.00191 44.1809 9.09768 44.5301 9.27763 44.8374C9.45759 45.1446 9.71538 45.399 10.025 45.5748L31.025 57.4498C31.3214 57.621 31.6577 57.7111 32 57.7111C32.3423 57.7111 32.6786 57.621 32.975 57.4498L53.975 45.5748C54.2846 45.399 54.5424 45.1446 54.7224 44.8374C54.9023 44.5301 54.9981 44.1809 55 43.8248V43.8248Z" stroke="white" stroke-width="4" stroke-linecap="round" stroke-linejoin="round"/>
<path d="M32.0002 41.0005C36.9708 41.0005 41.0002 36.9711 41.0002 32.0005C41.0002 27.0299 36.9708 23.0005 32.0002 23.0005C27.0297 23.0005 23.0002 27.0299 23.0002 32.0005C23.0002 36.9711 27.0297 41.0005 32.0002 41.0005Z" stroke="white" stroke-width="4" stroke-linecap="round" stroke-linejoin="round"/>
</svg>
