<svg width="842" height="100" viewBox="0 0 842 100" fill="none" xmlns="http://www.w3.org/2000/svg">
<path fill-rule="evenodd" clip-rule="evenodd" d="M33.6831 73.508H78.1493C78.1487 73.5066 78.1481 73.5052 78.1475 73.5038C78.0104 73.1792 77.8775 72.8523 77.7488 72.5231C75.9457 67.9127 74.9703 62.8644 74.9703 57.5143C74.9703 26.3541 102.808 0.984834 136.802 0.984834C162.402 0.984834 181.567 18.7709 181.567 42.3478C181.567 73.508 153.728 99.0152 119.595 99.0152C100.962 99.0152 85.7008 89.4886 78.8561 75.0836C78.6164 74.5792 78.387 74.0687 78.1681 73.5524C78.166 73.5475 78.164 73.5426 78.1619 73.5377L73.1321 97.3607H1.22862L21.2329 2.63936H48.3716L33.6831 73.508ZM78.523 76.6613L73.9448 98.3455H0L20.4202 1.65452H49.5955L34.9071 72.5231H76.6777C74.9206 67.9017 73.9711 62.8562 73.9711 57.5143C73.9711 25.741 102.33 0 136.802 0C162.893 0 182.566 18.1693 182.566 42.3478C182.566 74.1196 154.209 100 119.595 100C101.096 100 85.7899 90.768 78.523 76.6613ZM103.948 56.687C103.948 66.4839 111.334 73.764 121.274 73.764C138.499 73.764 152.589 59.9925 152.589 43.313C152.589 33.5161 145.203 26.236 135.263 26.236C118.037 26.236 103.948 40.0075 103.948 56.687ZM273.558 83.0952L272.809 83.7554C262.003 93.2849 244.842 100 230.456 100C206.146 100 185.671 80.9683 185.671 56.2734C185.671 41.4698 193.069 27.3998 204.368 17.0499C215.669 6.69842 230.944 0 246.823 0C263.63 0 277.777 7.57976 285.667 17.7595L286.294 18.5686L262.187 35.4981L261.632 34.5786C258.741 29.786 253.198 26.236 245.564 26.236C237.832 26.236 230.24 29.8537 224.567 35.3952C218.892 40.9379 215.228 48.3156 215.228 55.7219C215.228 67.1398 223.839 73.764 232.554 73.764C239.369 73.764 248.488 69.6363 254.206 63.5983L254.948 62.8147L273.558 83.0952ZM272.142 83.0203L272.143 83.0215C272.143 83.0216 272.143 83.0214 272.143 83.0215C271.896 83.2393 271.645 83.456 271.392 83.6708C260.726 92.7012 244.256 99.0152 230.456 99.0152C206.675 99.0152 186.67 80.4018 186.67 56.2734C186.67 27.3193 215.628 0.984834 246.823 0.984834C262.897 0.984834 276.451 8.04495 284.255 17.5818C284.465 17.8386 284.671 18.0971 284.873 18.3573L262.491 34.0752C262.321 33.7933 262.142 33.5155 261.955 33.2423C258.757 28.5736 253.097 25.2511 245.564 25.2511C229.477 25.2511 214.229 40.2797 214.229 55.7219C214.229 67.7172 223.321 74.7489 232.554 74.7489C239.413 74.7489 248.341 70.7984 254.241 64.9801C254.478 64.7465 254.71 64.5098 254.937 64.2702L272.142 83.0203ZM346.807 98.3455L344.569 85.6608H312.548L304.994 98.3455H271.473L329.592 1.65452H362.834L361.978 3.34058L378.914 98.3455H346.807ZM361.217 2.63936L360.937 3.19087L377.724 97.3607H347.648L345.409 84.676H311.976L304.422 97.3607H273.226L330.161 2.63936H361.217ZM323.866 64.9596H341.772L337.715 41.9342L323.866 64.9596ZM325.62 63.9748H340.585L337.194 44.7321L325.62 63.9748ZM405.848 98.3455L420.816 27.4769H392.419L397.871 1.65452H483.846L478.394 27.4769H449.996L435.028 98.3455H405.848ZM449.184 26.492H477.581L482.617 2.63936H398.683L393.647 26.492H422.045L407.077 97.3607H434.216L449.184 26.492ZM468.932 98.3455L489.352 1.65452H518.532L498.112 98.3455H468.932ZM497.299 97.3607H470.161L490.165 2.63936H517.304L497.299 97.3607ZM629.913 42.3478C629.913 74.1196 601.556 100 566.943 100C540.987 100 521.319 81.8267 521.319 57.5143C521.319 25.741 549.677 0 584.149 0C610.24 0 629.913 18.1693 629.913 42.3478ZM551.295 56.687C551.295 66.4839 558.682 73.764 568.621 73.764C585.847 73.764 599.937 59.9925 599.937 43.313C599.937 33.5161 592.55 26.236 582.61 26.236C565.385 26.236 551.295 40.0075 551.295 56.687ZM632.789 98.3455L653.209 1.65452H681.488L707.206 50.4928L717.844 1.65452H747.019L726.598 98.3455H698.461L672.603 49.4983L661.964 98.3455H632.789ZM672.208 46.622L699.067 97.3607H725.786L745.79 2.63936H718.651L707.6 53.378L680.881 2.63936H654.022L634.018 97.3607H661.156L672.208 46.622ZM800.534 37.9405L800.538 37.9414C811.724 40.491 820.024 43.1098 825.523 47.0676C828.296 49.0631 830.372 51.4084 831.747 54.2609C833.119 57.1077 833.767 60.4049 833.767 64.2702C833.767 75.1618 828.554 84.1281 820.111 90.3425C811.687 96.543 800.064 100 787.163 100C769.586 100 753.5 93.5752 743.352 83.0091L742.664 82.2931L761.705 64.5688L762.391 65.2101C770.302 72.6044 780.541 75.8322 789.122 75.8322C794.426 75.8322 798.238 74.592 800.693 72.9365C803.161 71.2725 804.21 69.2355 804.21 67.5793C804.21 66.9751 804.083 66.6392 803.856 66.3725C803.595 66.0663 803.105 65.7355 802.133 65.3591C800.605 64.7671 798.263 64.1923 794.674 63.3115C793.641 63.0581 792.505 62.7793 791.255 62.4674C782.142 60.2049 773.781 58.1034 767.723 54.2944C764.668 52.3735 762.164 49.9998 760.43 46.9261C758.696 43.8523 757.767 40.1395 757.767 35.5919C757.767 15.4304 776.039 0 802.971 0C817.725 0 831.416 4.61499 841.287 13.7799L842 14.4423L824.461 33.5172L823.723 32.8918C815.962 26.3163 806.415 24.1678 800.453 24.1678C791.399 24.1678 787.463 29.1705 787.463 32.4207C787.463 33.1095 787.625 33.5656 787.931 33.9402C788.261 34.3442 788.836 34.7476 789.843 35.1674C791.836 35.9978 795.061 36.718 800.122 37.8485L800.534 37.9405ZM791.5 61.5127C773.174 56.9628 758.766 53.2401 758.766 35.5919C758.766 16.1513 776.392 0.984834 802.971 0.984834C817.52 0.984834 830.949 5.53477 840.601 14.4968L824.374 32.145C824.374 32.1448 824.374 32.1451 824.374 32.145C816.401 25.3894 806.608 23.183 800.453 23.183C791.08 23.183 786.464 28.4223 786.464 32.4207C786.464 35.8084 789.707 36.5325 799.778 38.7814L800.313 38.9009C822.695 44.0024 832.768 49.2417 832.768 64.2702C832.768 85.3654 812.623 99.0152 787.163 99.0152C770.216 99.0152 754.738 92.9614 744.772 83.0397C744.541 82.8098 744.313 82.5778 744.088 82.3437C744.085 82.3399 744.081 82.336 744.077 82.3321L761.703 65.9248C769.817 73.508 780.309 76.817 789.122 76.817C800.033 76.817 805.209 71.7156 805.209 67.5793C805.209 64.8807 803.106 64.3647 794.86 62.3419C793.837 62.0911 792.719 61.817 791.5 61.5127ZM102.948 56.687C102.948 67.0278 110.782 74.7489 121.274 74.7489C139.04 74.7489 153.589 60.5476 153.589 43.313C153.589 32.9722 145.755 25.2511 135.263 25.2511C117.497 25.2511 102.948 39.4524 102.948 56.687ZM628.914 42.3478C628.914 73.508 601.076 99.0152 566.943 99.0152C541.483 99.0152 522.318 81.2291 522.318 57.5143C522.318 26.3541 550.156 0.984834 584.149 0.984834C609.749 0.984834 628.914 18.7709 628.914 42.3478ZM550.296 56.687C550.296 67.0278 558.13 74.7489 568.621 74.7489C586.387 74.7489 600.936 60.5476 600.936 43.313C600.936 32.9722 593.102 25.2511 582.61 25.2511C564.844 25.2511 550.296 39.4524 550.296 56.687Z" fill="#D6D6D6"/>
</svg>
