<svg width="720" height="100" viewBox="0 0 720 100" fill="none" xmlns="http://www.w3.org/2000/svg">
<path fill-rule="evenodd" clip-rule="evenodd" d="M57.8954 37.9414C69.0856 40.491 77.3886 43.1098 82.8893 47.0676C85.6629 49.0631 87.7397 51.4084 89.1152 54.2609C90.488 57.1077 91.1361 60.4049 91.1361 64.2702C91.1361 75.1618 85.921 84.1281 77.4752 90.3425C69.0481 96.543 57.421 100 44.5157 100C26.9316 100 10.8403 93.5752 0.687993 83.0091L0 82.2931L19.0479 64.5688L19.7343 65.2102C27.6486 72.6044 37.8908 75.8322 46.4749 75.8322C51.7809 75.8322 55.5945 74.592 58.0504 72.9365C60.5188 71.2725 61.5686 69.2355 61.5686 67.5793C61.5686 66.9751 61.4414 66.6392 61.2142 66.3725C60.9534 66.0663 60.4626 65.7355 59.491 65.3591C57.9625 64.767 55.6194 64.1923 52.0286 63.3115C50.9956 63.0581 49.8595 62.7794 48.6097 62.4677C39.4933 60.2051 31.1286 58.1036 25.0686 54.2944C22.0126 52.3735 19.5074 49.9998 17.7727 46.9261C16.0379 43.8523 15.1081 40.1395 15.1081 35.5919C15.1081 15.4304 33.3869 0 60.3291 0C75.0882 0 88.7841 4.61499 98.6586 13.7799L99.3723 14.4423L81.8269 33.5172L81.0885 32.8918C73.3249 26.3163 63.774 24.1678 57.8101 24.1678C48.753 24.1678 44.8156 29.1705 44.8156 32.4207C44.8156 33.1095 44.9773 33.5656 45.2834 33.9402C45.6136 34.3442 46.1887 34.7476 47.1965 35.1674C49.1903 35.9978 52.4162 36.7181 57.4794 37.8485L57.8954 37.9414ZM48.8539 61.5127C30.5216 56.9628 16.1077 53.2401 16.1077 35.5919C16.1077 16.1513 33.7403 0.984834 60.3291 0.984834C74.883 0.984834 88.3173 5.53477 97.9732 14.4968L81.7401 32.145C73.7634 25.389 63.9676 23.183 57.8101 23.183C48.4341 23.183 43.816 28.4223 43.816 32.4207C43.816 35.8083 47.0601 36.5325 57.1349 38.7814C57.3112 38.8208 57.4897 38.8606 57.6702 38.9009C80.0608 44.0024 90.1365 49.2417 90.1365 64.2702C90.1365 85.3654 69.985 99.0152 44.5157 99.0152C27.5624 99.0152 12.0784 92.9614 2.10922 83.0397C1.87439 82.806 1.64261 82.5701 1.41395 82.3321C1.41393 82.3321 1.41396 82.3322 1.41395 82.3321L19.0465 65.9248C27.163 73.508 37.6586 76.817 46.4749 76.817C57.3903 76.817 62.5681 71.7156 62.5681 67.5793C62.5681 64.8807 60.4637 64.3647 52.2147 62.342C51.1915 62.0911 50.0738 61.817 48.8539 61.5127ZM192.104 27.4769H141.876L140.166 36.1237H185.803L180.349 61.946H134.596L132.473 72.5231H182.584L177.13 98.3455H97.7008L118.128 1.65452H197.558L192.104 27.4769ZM131.256 73.508L133.775 60.9612H179.536L184.574 37.1085H138.953L141.052 26.492H191.291L196.329 2.63936H118.941L98.9299 97.3606H176.317L181.355 73.508H131.256ZM216.317 1.65452H262.331C271.907 1.65452 279.928 4.50807 285.568 9.54461C291.215 14.5886 294.397 21.7553 294.397 30.2147C294.397 47.3601 283.427 60.9682 267.739 66.722L287.196 98.3455H254.63L237.137 69.805H231.234L225.076 98.3455H195.889L216.317 1.65452ZM230.424 68.8202H237.701L255.194 97.3606H285.421L266.249 66.2005C266.572 66.0918 266.892 65.9797 267.211 65.8643C282.651 60.2753 293.398 46.9656 293.398 30.2147C293.398 13.8074 281.083 2.63936 262.331 2.63936H217.13L197.118 97.3606H224.267L230.424 68.8202ZM240.051 27.8905L236.694 43.569H251.275C254.557 43.569 257.936 42.1019 260.505 39.9138C263.09 37.7119 264.69 34.9275 264.69 32.4207C264.69 31.0546 264.078 29.9812 262.829 29.203C261.529 28.3933 259.503 27.8905 256.733 27.8905H240.051ZM251.275 44.5539C258.412 44.5539 265.689 38.2115 265.689 32.4207C265.689 28.9738 262.471 26.9057 256.733 26.9057H239.24L235.462 44.5539H251.275ZM371.385 1.65452H404.916L346.775 98.3455H313.521L314.377 96.6594L297.435 1.65452H329.552L339.164 55.2758L371.385 1.65452ZM338.649 58.0658L328.713 2.63936H298.626L315.419 96.8092L315.139 97.3606H346.206L403.162 2.63936H371.955L338.649 58.0658ZM386.799 98.3455L407.227 1.65452H436.418L415.99 98.3455H386.799ZM415.177 97.3606H388.028L408.04 2.63936H435.189L415.177 97.3606ZM525.305 83.0952L524.556 83.7554C513.746 93.2849 496.578 100 482.187 100C457.868 100 437.386 80.9683 437.386 56.2734C437.386 41.4698 444.786 27.3998 456.09 17.0499C467.395 6.69841 482.675 0 498.56 0C515.373 0 529.526 7.57976 537.418 17.7595L538.046 18.5686L513.929 35.4981L513.374 34.5786C510.482 29.786 504.937 26.236 497.301 26.236C489.566 26.236 481.971 29.8537 476.296 35.3952C470.619 40.9379 466.953 48.3156 466.953 55.7219C466.953 67.1398 475.567 73.764 484.286 73.764C491.103 73.764 500.226 69.6363 505.946 63.5983L506.688 62.8147L525.305 83.0952ZM523.889 83.0215C523.888 83.0224 523.887 83.0234 523.886 83.0243C523.64 83.2413 523.39 83.4568 523.138 83.6708C512.468 92.7012 495.992 99.0152 482.187 99.0152C458.397 99.0152 438.385 80.4018 438.385 56.2734C438.385 27.3193 467.353 0.984834 498.56 0.984834C514.64 0.984834 528.199 8.04495 536.006 17.5818C536.216 17.8386 536.422 18.0971 536.624 18.3573L514.233 34.0752C514.063 33.7933 513.884 33.5155 513.697 33.2423C510.498 28.5736 504.836 25.2511 497.301 25.2511C481.207 25.2511 465.954 40.2797 465.954 55.7219C465.954 67.7172 475.05 74.7489 484.286 74.7489C491.147 74.7489 500.078 70.7984 505.98 64.9801C506.217 64.7465 506.45 64.5098 506.677 64.2702L523.889 83.0215ZM623.325 27.4769H573.096L571.387 36.1237H617.023L611.57 61.946H565.817L563.694 72.5231H613.805L608.351 98.3455H528.922L549.349 1.65452H628.779L623.325 27.4769ZM562.477 73.508L564.996 60.9612H610.757L615.795 37.1085H570.174L572.273 26.492H622.512L627.55 2.63936H550.162L530.151 97.3606H607.538L612.576 73.508H562.477ZM678.519 37.9405L678.523 37.9414C689.713 40.491 698.016 43.1098 703.517 47.0676C706.291 49.0631 708.367 51.4084 709.743 54.2609C711.116 57.1077 711.764 60.4049 711.764 64.2702C711.764 75.1618 706.549 84.1281 698.103 90.3425C689.676 96.543 678.049 100 665.143 100C647.559 100 631.468 93.5752 621.316 83.0091L620.628 82.2931L639.676 64.5688L640.362 65.2102C648.276 72.6044 658.519 75.8322 667.103 75.8322C672.409 75.8322 676.222 74.592 678.678 72.9365C681.146 71.2725 682.196 69.2355 682.196 67.5793C682.196 66.9751 682.069 66.6392 681.842 66.3725C681.581 66.0663 681.09 65.7355 680.119 65.3591C678.59 64.7671 676.247 64.1923 672.656 63.3115C671.623 63.0581 670.486 62.7793 669.236 62.4674C660.12 60.2049 651.756 58.1034 645.696 54.2944C642.64 52.3735 640.135 49.9998 638.4 46.9261C636.666 43.8523 635.736 40.1395 635.736 35.5919C635.736 15.4304 654.015 0 680.957 0C695.716 0 709.412 4.61499 719.286 13.7799L720 14.4423L702.455 33.5172L701.716 32.8918C693.953 26.3163 684.402 24.1678 678.438 24.1678C669.381 24.1678 665.443 29.1705 665.443 32.4207C665.443 33.1095 665.605 33.5656 665.911 33.9402C666.241 34.3442 666.816 34.7476 667.824 35.1674C669.818 35.9978 673.044 36.718 678.107 37.8485L678.519 37.9405ZM669.482 61.5127C651.149 56.9628 636.735 53.2401 636.735 35.5919C636.735 16.1513 654.368 0.984834 680.957 0.984834C695.511 0.984834 708.945 5.53477 718.601 14.4968L702.368 32.145C702.368 32.1448 702.368 32.1451 702.368 32.145C694.391 25.3894 684.595 23.183 678.438 23.183C669.062 23.183 664.444 28.4223 664.444 32.4207C664.444 35.8084 667.688 36.5325 677.763 38.7814L678.298 38.9009C700.688 44.0024 710.764 49.2417 710.764 64.2702C710.764 85.3654 690.613 99.0152 665.143 99.0152C648.19 99.0152 632.706 92.9614 622.737 83.0397C622.506 82.8098 622.278 82.5778 622.053 82.3437C622.049 82.3399 622.045 82.336 622.042 82.3321L639.674 65.9248C647.791 73.508 658.286 76.817 667.103 76.817C678.018 76.817 683.196 71.7156 683.196 67.5793C683.196 64.8807 681.091 64.3647 672.842 62.3419C671.819 62.0911 670.701 61.817 669.482 61.5127Z" fill="#D6D6D6"/>
</svg>
