<svg width="64" height="64" viewBox="0 0 64 64" fill="none" xmlns="http://www.w3.org/2000/svg">
<path d="M13.9999 14V27.775C13.9999 37.7 21.9499 45.925 31.8749 46C34.2492 46.0165 36.6033 45.5631 38.8016 44.6659C40.9999 43.7687 42.999 42.4454 44.6837 40.7723C46.3684 39.0992 47.7055 37.1093 48.6179 34.9173C49.5302 32.7252 49.9999 30.3743 49.9999 28V14C49.9999 13.4696 49.7892 12.9609 49.4141 12.5858C49.039 12.2107 48.5303 12 47.9999 12H15.9999C15.4694 12 14.9607 12.2107 14.5857 12.5858C14.2106 12.9609 13.9999 13.4696 13.9999 14Z" stroke="white" stroke-width="4" stroke-linecap="round" stroke-linejoin="round"/>
<path d="M24 56H40" stroke="white" stroke-width="4" stroke-linecap="round" stroke-linejoin="round"/>
<path d="M32 45.9995V55.9995" stroke="white" stroke-width="4" stroke-linecap="round" stroke-linejoin="round"/>
<path d="M49.5499 32.0005H51.9999C54.1217 32.0005 56.1565 31.1576 57.6568 29.6573C59.1571 28.1571 59.9999 26.1222 59.9999 24.0005V20.0005C59.9999 19.4701 59.7892 18.9613 59.4141 18.5863C59.0391 18.2112 58.5304 18.0005 57.9999 18.0005H49.9999" stroke="white" stroke-width="4" stroke-linecap="round" stroke-linejoin="round"/>
<path d="M14.4996 32.0005H11.9746C9.85288 32.0005 7.81805 31.1576 6.31776 29.6573C4.81746 28.1571 3.97461 26.1222 3.97461 24.0005V20.0005C3.97461 19.4701 4.18532 18.9613 4.5604 18.5863C4.93547 18.2112 5.44418 18.0005 5.97461 18.0005H13.9746" stroke="white" stroke-width="4" stroke-linecap="round" stroke-linejoin="round"/>
</svg>
