<svg width="152" height="22" viewBox="0 0 152 22" fill="none" xmlns="http://www.w3.org/2000/svg">
<path d="M140.245 17.6805L147.509 22L145.581 13.86L152 8.38357L143.549 7.67839L140.245 0L136.941 7.67839L128.49 8.38357L134.909 13.86L132.981 22L140.245 17.6805Z" fill="#FDB52A"/>
<path d="M108.123 17.6805L115.387 22L113.459 13.86L119.877 8.38357L111.427 7.67839L108.123 0L104.818 7.67839L96.3677 8.38357L102.786 13.86L100.858 22L108.123 17.6805Z" fill="#FDB52A"/>
<path d="M75.9999 17.6805L83.2641 22L81.3359 13.86L87.7547 8.38357L79.304 7.67839L75.9999 0L72.6958 7.67839L64.2451 8.38357L70.6638 13.86L68.7356 22L75.9999 17.6805Z" fill="#FDB52A"/>
<path d="M43.8771 17.6805L51.1414 22L49.2131 13.86L55.6319 8.38357L47.1812 7.67839L43.8771 0L40.573 7.67839L32.1223 8.38357L38.5411 13.86L36.6129 22L43.8771 17.6805Z" fill="#FDB52A"/>
<path d="M11.7548 17.6805L19.0191 22L17.0908 13.86L23.5096 8.38357L15.0589 7.67839L11.7548 0L8.4507 7.67839L0 8.38357L6.41878 13.86L4.49056 22L11.7548 17.6805Z" fill="#FDB52A"/>
</svg>
