<svg width="1088" height="100" viewBox="0 0 1088 100" fill="none" xmlns="http://www.w3.org/2000/svg">
<path fill-rule="evenodd" clip-rule="evenodd" d="M13.4348 98.3455L28.409 27.4769H0L5.4541 1.65452H91.464L86.0099 27.4769H57.6007L42.6265 98.3455H13.4348ZM56.7878 26.492H85.1969L90.235 2.63936H6.26711L1.22904 26.492H29.6382L14.6639 97.3607H41.8135L56.7878 26.492ZM170.951 27.4769H120.721L119.011 36.1237H164.649L159.195 61.946H113.441L111.317 72.5231H161.431L155.977 98.3455H76.544L96.9725 1.65452H176.405L170.951 27.4769ZM110.101 73.508L112.62 60.9612H158.382L163.42 37.1085H117.798L119.897 26.492H170.138L175.176 2.63936H97.7855L77.7732 97.3607H155.164L160.202 73.508H110.101ZM227.551 37.9414C238.741 40.491 247.045 43.1098 252.546 47.0676C255.319 49.0631 257.396 51.4084 258.772 54.2609C260.145 57.1077 260.793 60.4049 260.793 64.2702C260.793 75.1618 255.577 84.1281 247.131 90.3425C238.704 96.543 227.076 100 214.171 100C196.586 100 180.494 93.5752 170.341 83.0091L169.653 82.2931L188.702 64.5688L189.388 65.2101C197.303 72.6044 207.545 75.8322 216.13 75.8322C221.436 75.8322 225.25 74.592 227.706 72.9365C230.174 71.2725 231.224 69.2355 231.224 67.5793C231.224 66.9751 231.097 66.6392 230.87 66.3725C230.609 66.0663 230.118 65.7355 229.146 65.3591C227.618 64.767 225.275 64.1923 221.684 63.3115C220.651 63.0581 219.515 62.7794 218.265 62.4677C209.148 60.2051 200.783 58.1036 194.723 54.2944C191.667 52.3735 189.161 49.9998 187.427 46.9261C185.692 43.8523 184.762 40.1395 184.762 35.5919C184.762 15.4304 203.041 0 229.985 0C244.744 0 258.441 4.61499 268.316 13.7799L269.029 14.4423L251.483 33.5172L250.745 32.8918C242.981 26.3163 233.43 24.1678 227.465 24.1678C218.408 24.1678 214.47 29.1705 214.47 32.4207C214.47 33.1095 214.632 33.5656 214.938 33.9402C215.268 34.3442 215.844 34.7476 216.851 35.1674C218.845 35.9978 222.071 36.718 227.135 37.8485L227.551 37.9414ZM218.509 61.5127C200.176 56.9628 185.761 53.2401 185.761 35.5919C185.761 16.1513 203.395 0.984834 229.985 0.984834C244.539 0.984834 257.974 5.53467 267.63 14.4964C267.63 14.4965 267.63 14.4963 267.63 14.4964L251.396 32.145C243.419 25.389 233.623 23.183 227.465 23.183C218.089 23.183 213.471 28.4223 213.471 32.4207C213.471 35.8083 216.715 36.5325 226.79 38.7814L227.326 38.9009C249.717 44.0024 259.793 49.2417 259.793 64.2702C259.793 85.3654 239.641 99.0152 214.171 99.0152C197.217 99.0152 181.732 92.9614 171.762 83.0397C171.528 82.806 171.296 82.5701 171.067 82.3321L188.7 65.9248C196.817 73.508 207.313 76.817 216.13 76.817C227.046 76.817 232.224 71.7156 232.224 67.5793C232.224 64.8807 230.119 64.3647 221.87 62.342C220.847 62.0911 219.729 61.817 218.509 61.5127ZM280.093 98.3455L295.067 27.4769H266.658L272.112 1.65452H358.122L352.668 27.4769H324.259L309.284 98.3455H280.093ZM323.446 26.492H351.855L356.893 2.63936H272.925L267.887 26.492H296.296L281.322 97.3607H308.472L323.446 26.492ZM343.202 98.3455L363.631 1.65452H392.822L372.394 98.3455H343.202ZM371.581 97.3607H344.431L364.444 2.63936H391.593L371.581 97.3607ZM394.96 98.3455L415.389 1.65452H443.782L459.364 45.8234L494.082 1.65452H523.23L502.802 98.3455H473.602L483.979 50.7233L450.59 93.8821L434.638 50.1975L424.147 98.3455H394.96ZM434.395 46.622L450.909 91.8456L485.895 46.622L474.839 97.3607H501.989L522.001 2.63936H494.572L459.025 47.8629L443.072 2.63936H416.202L396.189 97.3607H423.339L434.395 46.622ZM634.726 42.3478C634.726 74.1196 606.358 100 571.73 100C545.764 100 526.088 81.8267 526.088 57.5143C526.088 25.741 554.458 0 588.944 0C615.046 0 634.726 18.1693 634.726 42.3478ZM556.076 56.687C556.076 66.4839 563.466 73.764 573.41 73.764C590.642 73.764 604.738 59.9925 604.738 43.313C604.738 33.5161 597.348 26.236 587.404 26.236C570.172 26.236 556.076 40.0075 556.076 56.687ZM637.603 98.3455L658.032 1.65452H686.322L712.051 50.4928L722.692 1.65452H751.879L731.45 98.3455H703.302L677.434 49.4983L666.79 98.3455H637.603ZM677.038 46.622L703.908 97.3607H730.637L750.65 2.63936H723.5L712.444 53.378L685.715 2.63936H658.845L638.832 97.3607H665.982L677.038 46.622ZM754.005 98.3455L774.433 1.65452H803.625L783.197 98.3455H754.005ZM782.384 97.3607H755.234L775.246 2.63936H802.396L782.384 97.3607ZM874.025 98.3455L871.786 85.6608H839.752L832.195 98.3455H798.661L856.803 1.65452H890.058L889.203 3.3406L906.145 98.3455H874.025ZM888.441 2.63936L888.161 3.19087L904.955 97.3607H874.866L872.627 84.676H839.18L831.623 97.3607H800.415L857.373 2.63936H888.441ZM851.075 64.9596H868.988L864.93 41.9342L851.075 64.9596ZM852.83 63.9748H867.8L864.409 44.7321L852.83 63.9748ZM955.451 73.508H999.521L1007.67 65.9248C1015.79 73.508 1026.28 76.817 1035.1 76.817C1046.02 76.817 1051.19 71.7156 1051.19 67.5793C1051.19 64.8807 1049.09 64.3647 1040.84 62.342C1039.82 62.0911 1038.7 61.817 1037.48 61.5127C1019.15 56.9628 1004.73 53.2401 1004.73 35.5919C1004.73 16.1513 1022.37 0.984834 1048.96 0.984834C1063.51 0.984834 1076.94 5.53477 1086.6 14.4968L1070.37 32.145C1062.39 25.389 1052.59 23.183 1046.44 23.183C1037.06 23.183 1032.44 28.4223 1032.44 32.4207C1032.44 35.8084 1035.69 36.5325 1045.76 38.7814L1046.3 38.9009C1068.69 44.0024 1078.76 49.2417 1078.76 64.2702C1078.76 85.3654 1058.61 99.0152 1033.14 99.0152C1019.77 99.0152 1007.31 95.2481 997.748 88.7869C997.448 88.5842 997.151 88.3789 996.857 88.1709L994.916 97.3607H922.984L942.996 2.63936H970.146L955.451 73.508ZM997.528 89.8305L995.729 98.3455H921.755L942.183 1.65452H971.37L956.676 72.5231H999.124L1007.67 64.5688L1008.36 65.2101C1016.27 72.6044 1026.52 75.8322 1035.1 75.8322C1040.41 75.8322 1044.22 74.592 1046.68 72.9365C1049.15 71.2725 1050.19 69.2355 1050.19 67.5793C1050.19 66.9751 1050.07 66.6392 1049.84 66.3725C1049.58 66.0663 1049.09 65.7355 1048.12 65.3591C1046.59 64.767 1044.25 64.1922 1040.65 63.3114C1039.62 63.058 1038.48 62.7792 1037.23 62.4674C1028.12 60.2049 1019.75 58.1034 1013.69 54.2944C1010.64 52.3735 1008.13 49.9998 1006.4 46.9261C1004.66 43.8523 1003.73 40.1395 1003.73 35.5919C1003.73 15.4304 1022.01 0 1048.96 0C1063.71 0 1077.41 4.61499 1087.29 13.7799L1088 14.4423L1070.45 33.5172L1069.72 32.8918C1061.95 26.3163 1052.4 24.1678 1046.44 24.1678C1037.38 24.1678 1033.44 29.1705 1033.44 32.4207C1033.44 33.1095 1033.6 33.5656 1033.91 33.9402C1034.24 34.3442 1034.81 34.7476 1035.82 35.1674C1037.82 35.9978 1041.04 36.718 1046.11 37.8484L1046.52 37.9405L1046.52 37.9414C1057.71 40.491 1066.02 43.1098 1071.52 47.0676C1074.29 49.0631 1076.37 51.4084 1077.74 54.2609C1079.12 57.1077 1079.76 60.4049 1079.76 64.2702C1079.76 75.1618 1074.55 84.1281 1066.1 90.3425C1057.67 96.543 1046.05 100 1033.14 100C1019.75 100 1007.22 96.274 997.528 89.8305ZM633.727 42.3478C633.727 73.508 605.877 99.0152 571.73 99.0152C546.26 99.0152 527.087 81.2291 527.087 57.5143C527.087 26.3541 554.937 0.984834 588.944 0.984834C614.554 0.984834 633.727 18.7709 633.727 42.3478ZM555.077 56.687C555.077 67.0278 562.914 74.7489 573.41 74.7489C591.183 74.7489 605.737 60.5476 605.737 43.313C605.737 32.9722 597.9 25.2511 587.404 25.2511C569.631 25.2511 555.077 39.4524 555.077 56.687Z" fill="#393939"/>
</svg>
