<svg width="392" height="100" viewBox="0 0 392 100" fill="none" xmlns="http://www.w3.org/2000/svg">
<path fill-rule="evenodd" clip-rule="evenodd" d="M0 98.3455L20.3981 1.65452H72.0747C80.3564 1.65452 87.3342 3.90882 92.2634 7.81765C97.2073 11.7381 100.042 17.2906 100.042 23.7345C100.042 34.4492 93.3021 43.5463 83.2805 48.5821C90.5199 52.5964 95.0118 59.9043 95.0118 68.5444C95.0118 78.0754 90.3107 85.5623 83.0625 90.6325C75.8382 95.686 66.0874 98.3455 55.865 98.3455H0ZM82.1793 49.1129C81.7996 48.9168 81.4124 48.7298 81.018 48.5523C81.415 48.3793 81.8073 48.2002 82.1946 48.0149C92.3042 43.1805 99.0442 34.2248 99.0442 23.7345C99.0442 11.4635 88.2844 2.63936 72.0747 2.63936H21.2099L1.22729 97.3607H55.865C75.9874 97.3607 94.0136 86.882 94.0136 68.5444C94.0136 60.0262 89.4689 52.8782 82.1793 49.1129ZM40.4938 39.4524H57.8214C65.2275 39.4524 70.3978 35.3161 70.3978 29.3874C70.2581 26.3541 68.0223 25.1133 62.5725 25.1133H43.4283L40.4938 39.4524ZM41.7136 38.4676H57.8214C61.3426 38.4676 64.251 37.4845 66.2582 35.8783C68.2451 34.2883 69.3931 32.0577 69.3997 29.4102C69.3679 28.7778 69.2309 28.2998 69.0159 27.9285C68.8023 27.5596 68.4803 27.2416 67.9917 26.9738C66.968 26.4126 65.2645 26.0981 62.5725 26.0981H44.245L41.7136 38.4676ZM32.9479 74.8868H54.3279C62.0135 74.8868 67.4633 70.6126 67.4633 64.4081C67.4633 61.0991 65.0878 59.7203 59.2188 59.7203H36.1619L32.9479 74.8868ZM34.1763 73.9019H54.3279C57.9901 73.9019 61.0397 72.8836 63.1521 71.2068C65.2492 69.5421 66.4652 67.2003 66.4652 64.4081C66.4652 63.6952 66.3373 63.1546 66.1155 62.7352C65.8982 62.3242 65.5605 61.9719 65.0418 61.6756C63.9548 61.0547 62.1207 60.7051 59.2188 60.7051H36.9729L34.1763 73.9019ZM138.412 73.508H182.83C182.83 73.5066 182.829 73.5052 182.829 73.5038C182.692 73.1792 182.559 72.8523 182.43 72.5231C180.629 67.9127 179.655 62.8644 179.655 57.5143C179.655 26.3541 207.463 0.984834 241.419 0.984834C266.991 0.984834 286.135 18.7709 286.135 42.3478C286.135 73.508 258.327 99.0152 224.231 99.0152C205.618 99.0152 190.374 89.4886 183.536 75.0836C183.297 74.5791 183.068 74.0687 182.849 73.5524C182.847 73.5475 182.845 73.5426 182.843 73.5377L177.819 97.3607H105.993L125.976 2.63936H153.085L138.412 73.508ZM183.204 76.6613L178.63 98.3455H104.766L125.164 1.65452H154.307L139.635 72.5231H181.36C179.605 67.9017 178.657 62.8562 178.657 57.5143C178.657 25.741 206.984 0 241.419 0C267.482 0 287.134 18.1693 287.134 42.3478C287.134 74.1196 258.808 100 224.231 100C205.752 100 190.463 90.768 183.204 76.6613ZM208.601 56.687C208.601 66.4839 215.979 73.764 225.908 73.764C243.115 73.764 257.19 59.9925 257.19 43.313C257.19 33.5161 249.811 26.236 239.882 26.236C222.675 26.236 208.601 40.0075 208.601 56.687ZM335.978 63.4627L340.589 41.7766H387.624L378.781 83.5425L378.533 83.759C366.192 94.5363 350.445 100 335.95 100C309.31 100 290.096 81.2627 290.096 57.3764C290.096 41.7986 298.129 27.4497 309.975 17.0193C321.82 6.58994 337.562 0 353.138 0C369.502 0 383.221 7.0244 391.386 17.7664L392 18.5738L367.908 35.5105L367.362 34.5618C364.086 28.8738 358.04 26.236 351.601 26.236C343.608 26.236 335.602 30.1558 329.573 35.9687C323.54 41.7866 319.621 49.372 319.621 56.5491C319.621 66.3314 326.984 73.764 337.627 73.764C343.122 73.764 348.535 71.8728 353.359 68.9035L354.44 63.4627H335.978ZM355.653 62.4778L354.256 69.5096C349.225 72.6807 343.496 74.7489 337.627 74.7489C326.448 74.7489 318.622 66.8899 318.622 56.5491C318.622 41.5206 334.972 25.2511 351.601 25.2511C357.989 25.2511 364.123 27.7522 367.711 33.2308C367.89 33.5048 368.063 33.7863 368.23 34.0752L390.587 18.3576C390.588 18.3577 390.587 18.3574 390.587 18.3576C390.388 18.0951 390.185 17.8342 389.979 17.5762C381.949 7.53745 368.805 0.984834 353.138 0.984834C322.535 0.984834 291.094 26.9057 291.094 57.3764C291.094 80.6776 309.819 99.0152 335.95 99.0152C350.203 99.0152 365.714 93.638 377.872 83.0215L386.396 42.7615H341.4L337.208 62.4778H355.653ZM207.602 56.687C207.602 67.0278 215.428 74.7489 225.908 74.7489C243.655 74.7489 258.188 60.5476 258.188 43.313C258.188 32.9722 250.362 25.2511 239.882 25.2511C222.135 25.2511 207.602 39.4524 207.602 56.687Z" fill="#D6D6D6"/>
</svg>
