<svg width="814" height="100" viewBox="0 0 814 100" fill="none" xmlns="http://www.w3.org/2000/svg">
<path fill-rule="evenodd" clip-rule="evenodd" d="M0 98.3455L20.4434 1.65452H66.4928C76.076 1.65452 84.1036 4.50807 89.7475 9.54461C95.3997 14.5886 98.584 21.7553 98.584 30.2147C98.584 53.3371 78.8368 69.805 54.3085 69.805H35.3717L29.2096 98.3455H0ZM34.5616 68.8202H54.3085C78.3969 68.8202 97.5836 52.6886 97.5836 30.2147C97.5836 13.8074 85.2593 2.63936 66.4928 2.63936H21.257L1.23001 97.3607H28.3995L34.5616 68.8202ZM39.6034 44.5539H55.4289C62.5714 44.5539 69.854 38.2115 69.854 32.4207C69.854 28.9738 66.6328 26.9057 60.8908 26.9057H43.3847L39.6034 44.5539ZM40.8368 43.569H55.4289C58.7128 43.569 62.0948 42.1019 64.6657 39.9138C67.2528 37.7119 68.8536 34.9275 68.8536 32.4207C68.8536 31.0546 68.2414 29.9812 66.9911 29.203C65.69 28.3933 63.6625 27.8905 60.8908 27.8905H44.1961L40.8368 43.569ZM161.412 98.3455L159.171 85.6608H127.114L119.551 98.3455H85.992L144.177 1.65452H177.457L176.6 3.34056L193.555 98.3455H161.412ZM175.838 2.63936L175.558 3.19087L192.364 97.3607H162.253L160.013 84.676H126.541L118.978 97.3607H87.7474L144.747 2.63936H175.838ZM138.445 64.9596H156.371L152.31 41.9342L138.445 64.9596ZM140.201 63.9748H155.182L151.788 44.7321L140.201 63.9748ZM297.392 83.0952L296.643 83.7554C285.825 93.2849 268.644 100 254.241 100C229.904 100 209.406 80.9683 209.406 56.2734C209.406 41.4698 216.812 27.3998 228.124 17.0499C239.438 6.69842 254.73 0 270.627 0C287.453 0 301.617 7.57976 309.515 17.7595L310.143 18.5686L286.008 35.4981L285.453 34.5786C282.558 29.786 277.009 26.236 269.367 26.236C261.626 26.236 254.026 29.8537 248.346 35.3952C242.665 40.9379 238.996 48.3156 238.996 55.7219C238.996 67.1398 247.617 73.764 256.342 73.764C263.165 73.764 272.294 69.6363 278.019 63.5983L278.762 62.8147L297.392 83.0952ZM295.975 83.0203L295.976 83.0215C295.976 83.0216 295.976 83.0214 295.976 83.0215C295.729 83.2393 295.478 83.456 295.224 83.6708C284.546 92.7012 268.058 99.0152 254.241 99.0152C230.433 99.0152 210.406 80.4018 210.406 56.2734C210.406 27.3193 239.396 0.984834 270.627 0.984834C286.72 0.984834 300.289 8.04495 308.102 17.5818C308.312 17.8386 308.519 18.0971 308.72 18.3573L286.313 34.0752C286.142 33.7933 285.963 33.5155 285.776 33.2423C282.575 28.5736 276.908 25.2511 269.367 25.2511C253.261 25.2511 237.996 40.2797 237.996 55.7219C237.996 67.7172 247.099 74.7489 256.342 74.7489C263.209 74.7489 272.147 70.7984 278.053 64.9801C278.291 64.7465 278.523 64.5098 278.75 64.2702L295.975 83.0203ZM302.413 98.3455L322.856 1.65452H352.076L345.184 33.361L380.704 1.65452H418.268L371.947 43.1371L396.565 94.3305L452.334 1.65452H485.613L484.757 3.34058L501.712 98.3455H469.569L467.328 85.6608H435.27L427.708 98.3455H365.326L348.674 63.1191L337.458 72.7964L331.612 98.3455H302.413ZM336.554 72.2671L349.018 61.5127L365.964 97.3607H427.135L434.698 84.676H468.169L470.41 97.3607H500.521L483.715 3.19087L483.995 2.63936H452.904L396.466 96.4268L370.726 42.8994L415.682 2.63936H381.09L343.556 36.1434L350.839 2.63936H323.67L303.643 97.3607H330.812L336.554 72.2671ZM446.602 64.9596H464.528L460.467 41.9342L446.602 64.9596ZM448.358 63.9748H463.339L459.945 44.7321L448.358 63.9748ZM563.407 63.4627L568.028 41.7766H615.167L606.305 83.5425L606.056 83.759C593.687 94.5363 577.905 100 563.379 100C536.68 100 517.422 81.2627 517.422 57.3764C517.422 41.7986 525.474 27.4497 537.346 17.0193C549.217 6.58994 564.994 0 580.605 0C597.005 0 610.754 7.0244 618.938 17.7664L619.553 18.5738L595.408 35.5105L594.86 34.5618C591.577 28.8738 585.517 26.236 579.064 26.236C571.053 26.236 563.029 30.1558 556.988 35.9687C550.941 41.7866 547.013 49.372 547.013 56.5491C547.013 66.3314 554.393 73.764 565.059 73.764C570.567 73.764 575.991 71.8728 580.826 68.9035L581.91 63.4627H563.407ZM583.125 62.4778L581.725 69.5096C576.683 72.6807 570.941 74.7489 565.059 74.7489C553.855 74.7489 546.012 66.8899 546.012 56.5491C546.012 41.5206 562.398 25.2511 579.064 25.2511C585.466 25.2511 591.614 27.7522 595.21 33.2308C595.39 33.5048 595.563 33.7863 595.73 34.0752L618.138 18.3573C617.938 18.0947 617.734 17.8343 617.527 17.5763C609.479 7.53745 596.307 0.984834 580.605 0.984834C549.934 0.984834 518.423 26.9057 518.423 57.3764C518.423 80.6776 537.189 99.0152 563.379 99.0152C577.663 99.0152 593.209 93.638 605.393 83.0215L613.936 42.7615H568.84L564.639 62.4778H583.125ZM715.85 27.4769H665.583L663.872 36.1237H709.544L704.086 61.946H658.298L656.173 72.5231H706.323L700.864 98.3455H621.374L641.817 1.65452H721.308L715.85 27.4769ZM654.955 73.508L657.476 60.9612H703.272L708.314 37.1085H662.658L664.759 26.492H715.036L720.078 2.63936H642.631L622.604 97.3607H700.051L705.093 73.508H654.955ZM772.487 37.9405L772.491 37.9414C783.69 40.491 791.999 43.1098 797.504 47.0676C800.28 49.0631 802.358 51.4084 803.735 54.2609C805.109 57.1077 805.757 60.4049 805.757 64.2702C805.757 75.1618 800.538 84.1281 792.086 90.3425C783.652 96.543 772.016 100 759.101 100C741.503 100 725.4 93.5752 715.24 83.0091L714.551 82.2931L733.614 64.5688L734.301 65.2101C742.221 72.6044 752.471 75.8322 761.062 75.8322C766.372 75.8322 770.188 74.592 772.646 72.9365C775.117 71.2725 776.167 69.2355 776.167 67.5793C776.167 66.9751 776.04 66.6392 775.813 66.3725C775.552 66.0663 775.06 65.7355 774.088 65.3591C772.558 64.7671 770.213 64.1923 766.62 63.3115C765.586 63.0581 764.448 62.7793 763.197 62.4674C754.074 60.2049 745.704 58.1034 739.639 54.2944C736.581 52.3735 734.074 49.9998 732.338 46.9261C730.601 43.8523 729.671 40.1395 729.671 35.5919C729.671 15.4304 747.964 0 774.927 0C789.697 0 803.404 4.61499 813.286 13.7799L814 14.4423L796.441 33.5172L795.702 32.8918C787.933 26.3163 778.374 24.1678 772.406 24.1678C763.342 24.1678 759.401 29.1705 759.401 32.4207C759.401 33.1095 759.563 33.5656 759.869 33.9402C760.2 34.3442 760.775 34.7476 761.784 35.1674C763.779 35.9978 767.008 36.718 772.075 37.8485L772.487 37.9405ZM763.443 61.5127C745.096 56.9628 730.671 53.2401 730.671 35.5919C730.671 16.1513 748.317 0.984834 774.927 0.984834C789.492 0.984834 802.936 5.53477 812.6 14.4968L796.354 32.145C796.354 32.1448 796.354 32.1451 796.354 32.145C788.372 25.3894 778.568 23.183 772.406 23.183C763.023 23.183 758.401 28.4223 758.401 32.4207C758.401 35.8084 761.647 36.5325 771.73 38.7814L772.266 38.9009C794.674 44.0024 804.757 49.2417 804.757 64.2702C804.757 85.3654 784.59 99.0152 759.101 99.0152C742.135 99.0152 726.639 92.9614 716.662 83.0397C716.431 82.8098 716.203 82.5778 715.977 82.3437C715.974 82.3399 715.97 82.336 715.966 82.3321L733.612 65.9248C741.735 73.508 752.239 76.817 761.062 76.817C771.986 76.817 777.167 71.7156 777.167 67.5793C777.167 64.8807 775.061 64.3647 766.806 62.3419C765.782 62.0911 764.664 61.817 763.443 61.5127Z" fill="#D6D6D6"/>
</svg>
